<svg width="35" height="35" viewBox="0 0 35 35" fill="none" xmlns="http://www.w3.org/2000/svg">
<path d="M2.50861 23.9302C8.30059 23.61 19.4936 21.9442 24.549 29.4045" stroke="#B91C1C" stroke-width="3"/>
<path d="M2.37615 10.2024C8.18908 10.469 19.4322 12.0312 24.4344 4.52453" stroke="#0E7490" stroke-width="3"/>
<path d="M18.2706 2.22136C15.7673 7.02687 10.8626 16.5765 10.864 16.8766C10.8654 17.1767 15.5799 26.3837 18.659 31.8851" stroke="#FACC15" stroke-width="3"/>
<path d="M16.75 2.16506C17.2141 1.89711 17.7859 1.89711 18.25 2.16506L30.4054 9.18301C30.8695 9.45096 31.1554 9.94615 31.1554 10.4821V24.5179C31.1554 25.0538 30.8695 25.549 30.4054 25.817L18.25 32.8349C17.7859 33.1029 17.2141 33.1029 16.75 32.8349L4.59456 25.817C4.13045 25.549 3.84456 25.0538 3.84456 24.518V10.4821C3.84456 9.94615 4.13045 9.45096 4.59456 9.18301L16.75 2.16506Z" stroke="#FFF7ED" stroke-width="3"/>
</svg>
