<svg width="421" height="429" viewBox="0 0 421 429" fill="none" xmlns="http://www.w3.org/2000/svg">
<g clip-path="url(#clip0_173_2)">
<path d="M307.96 318.902C297.364 313.936 269.936 308.458 245 326.291" stroke="#1E2330" stroke-width="10"/>
<path d="M163 326.596C174.646 327.75 202.333 323.783 219.908 298.665" stroke="#1E2330" stroke-width="10"/>
<path d="M356.41 239C357.189 250.676 365.661 277.332 393.331 290.531" stroke="#1E2330" stroke-width="10"/>
<path d="M344.451 177.608C345.517 165.954 354.642 139.515 382.628 127" stroke="#1E2330" stroke-width="10"/>
<path d="M56.6217 123.382C50.6352 113.327 42.4801 86.5722 57.7681 60" stroke="#1E2330" stroke-width="10"/>
<path d="M242 298C247.523 298 252 293.523 252 288C252 282.477 247.523 278 242 278C236.477 278 232 282.477 232 288C232 293.523 236.477 298 242 298Z" fill="#1E2330"/>
<path d="M226 186C231.523 186 236 181.523 236 176C236 170.477 231.523 166 226 166C220.477 166 216 170.477 216 176C216 181.523 220.477 186 226 186Z" fill="#1E2330"/>
<path d="M352 333C357.523 333 362 328.523 362 323C362 317.477 357.523 313 352 313C346.477 313 342 317.477 342 323C342 328.523 346.477 333 352 333Z" fill="#1E2330"/>
<path d="M279 142C284.523 142 289 137.523 289 132C289 126.477 284.523 122 279 122C273.477 122 269 126.477 269 132C269 137.523 273.477 142 279 142Z" fill="#1E2330"/>
<path d="M25 207C30.5228 207 35 202.523 35 197C35 191.477 30.5228 187 25 187C19.4772 187 15 191.477 15 197C15 202.523 19.4772 207 25 207Z" fill="#1E2330"/>
<path d="M223 349C228.523 349 233 344.523 233 339C233 333.477 228.523 329 223 329C217.477 329 213 333.477 213 339C213 344.523 217.477 349 223 349Z" fill="#1E2330"/>
<path d="M357.843 9.83891C373.03 17.722 388.153 34.4744 393.563 50.9362C399.826 69.9903 371.611 64.7297 363.163 59.2237C361.608 58.2085 359.989 56.1035 360.501 54.3308C362.221 48.4043 374.589 49.022 377.248 49.4657C393.986 52.2812 419.048 71.6601 415.996 91.1812" stroke="#1E2330" stroke-width="10" stroke-linecap="round"/>
<path d="M404.057 206.064C412.238 221.092 415.406 243.437 410.685 260.109C405.22 279.408 384.773 259.268 380.848 249.978C380.127 248.267 379.963 245.617 381.379 244.434C386.119 240.483 396.026 247.911 397.982 249.767C410.283 261.461 420.222 291.542 406.775 306.018" stroke="#1E2330" stroke-width="10" stroke-linecap="round"/>
<path d="M68.1458 296.297C52.8028 288.723 37.3428 272.281 31.6004 255.932C24.9522 237.009 53.2675 241.696 61.8259 247.03C63.4011 248.013 65.062 250.085 64.5859 251.868C62.9865 257.828 50.6092 257.461 47.9411 257.072C31.15 254.596 5.7002 235.73 8.35505 216.151" stroke="#1E2330" stroke-width="10" stroke-linecap="round"/>
<path d="M102.019 102.557C109.509 87.1735 125.867 71.6248 142.185 65.794C161.072 59.0436 156.538 87.3838 151.25 95.971C150.276 97.5515 148.213 99.2236 146.428 98.7571C140.459 97.19 140.759 84.8109 141.134 82.1407C143.518 65.3364 162.247 39.785 181.84 42.3339" stroke="#1E2330" stroke-width="10" stroke-linecap="round"/>
<path d="M133.764 401.744C132.646 410.211 141.34 415.277 147.582 417.203C158.932 420.708 178.557 420.561 189.527 419.728C203.102 418.7 218.938 415.58 232.121 411.947C240.565 409.619 248.707 406.399 256.407 402.301" stroke="#1E2330" stroke-width="10" stroke-linecap="round"/>
<path d="M130.882 155.405C128.542 147.191 136.404 140.912 142.299 138.097C153.017 132.974 172.453 130.26 183.428 129.484C197.007 128.522 213.129 129.301 226.701 130.974C235.394 132.046 243.918 134.045 252.134 136.977" stroke="#1E2330" stroke-width="10" stroke-linecap="round"/>
<path d="M281.723 12.4344C283.978 18.8809 277.171 22.9705 272.025 24.5976C262.669 27.5598 245.551 27.9339 235.869 27.5695C223.889 27.1205 209.623 25.1277 197.589 22.6768C189.882 21.1065 182.302 18.8463 174.975 15.9035" stroke="#1E2330" stroke-width="10" stroke-linecap="round"/>
<path d="M371.115 97.9988C364.166 93.0337 355.609 98.3272 350.976 102.933C342.549 111.305 333.459 128.698 329.039 138.773C323.568 151.239 318.882 166.684 315.895 180.029C313.983 188.576 313 197.277 313 206" stroke="#1E2330" stroke-width="10" stroke-linecap="round"/>
<path d="M409.584 389.519C401.78 398.996 389.262 400.402 381.716 394.125C374.17 387.849 373.207 375.223 381.013 365.738C388.82 356.254 401.336 354.855 408.882 361.132C416.42 367.406 417.39 380.034 409.584 389.519Z" stroke="#1E2330" stroke-width="10"/>
<path d="M347.132 287.208C342.431 298.549 330.867 303.544 321.819 299.741C312.771 295.938 308.168 284.141 312.869 272.793C317.57 261.444 329.134 256.457 338.182 260.26C347.223 264.063 351.834 275.86 347.132 287.208Z" stroke="#1E2330" stroke-width="10"/>
<path d="M184.385 155.567C196.569 157.077 204.463 166.893 203.207 176.628C201.951 186.362 191.807 193.941 179.616 192.432C167.425 190.923 159.538 181.105 160.794 171.371C162.052 161.644 172.194 154.058 184.385 155.567Z" stroke="#1E2330" stroke-width="10"/>
<path d="M25.573 170.163C25.4965 170.215 24.5092 170.884 25.3171 170.986C26.567 171.144 27.808 170.099 28.5748 169.293C34.794 162.741 30.8992 150.491 28.0304 143.362C27.6389 142.384 27.1709 141.443 26.7106 140.502C26.371 139.804 24.8845 138.185 25.6153 138.453C25.8665 138.545 25.9947 138.818 26.1998 138.986C28.0301 140.486 30.005 142.033 32.0659 143.179C39.2296 147.159 47.0119 149.507 55.1833 150.352C59.2614 150.774 71.313 151.957 72.9766 145.881C73.9717 142.238 70.0804 138.146 68.4101 135.224" stroke="#1E2330" stroke-width="10" stroke-linecap="round"/>
<path d="M212.834 211.794C212.908 211.687 213.843 210.314 213.98 211.442C214.19 213.188 212.729 214.913 211.604 215.977C202.46 224.611 185.474 219.086 175.594 215.03C174.238 214.476 172.934 213.816 171.631 213.167C170.664 212.688 168.425 210.601 168.793 211.623C168.919 211.975 169.298 212.156 169.529 212.443C171.599 215.009 173.733 217.777 175.31 220.661C180.786 230.689 183.992 241.569 185.106 252.981C185.663 258.676 187.219 275.507 178.768 277.785C173.702 279.147 168.047 273.686 164 271.334" stroke="#1E2330" stroke-width="10" stroke-linecap="round"/>
<path d="M164.84 399.431C164.787 399.508 164.113 400.491 164.015 399.683C163.863 398.432 164.915 397.197 165.725 396.434C172.309 390.249 184.539 394.207 191.653 397.113C192.629 397.509 193.567 397.982 194.506 398.447C195.202 398.791 196.814 400.286 196.549 399.553C196.458 399.302 196.186 399.172 196.019 398.966C194.528 397.128 192.992 395.145 191.857 393.078C187.914 385.894 185.606 378.1 184.804 369.924C184.403 365.844 183.283 353.786 189.367 352.154C193.015 351.178 197.086 355.09 200 356.776" stroke="#1E2330" stroke-width="10" stroke-linecap="round"/>
<path d="M243.493 155.007C243.398 154.872 242.201 153.13 242.026 154.561C241.757 156.776 243.627 158.964 245.067 160.315C256.772 171.268 278.513 164.258 291.16 159.113C292.896 158.41 294.564 157.573 296.232 156.749C297.47 156.141 300.336 153.494 299.865 154.791C299.704 155.237 299.219 155.466 298.923 155.831C296.273 159.086 293.542 162.597 291.523 166.257C284.514 178.979 280.41 192.782 278.984 207.259C278.271 214.485 276.28 235.837 287.097 238.727C293.582 240.456 300.82 233.527 306 230.543" stroke="#1E2330" stroke-width="10" stroke-linecap="round"/>
<path d="M79 271.935C100.122 261.962 121.237 203 104.521 203C78.5342 203 91.1113 324.817 116.838 293.71C122.894 286.754 134.051 266.625 136.517 256.537C132.729 272.057 141.206 308.056 163 296.887" stroke="#1E2330" stroke-width="10"/>
<path d="M63.7363 416.482C68.1022 393.535 32.8542 341.767 23.0177 355.282C7.72588 376.293 113.62 437.808 103.608 398.702C101.547 389.712 91.8373 368.847 85.1328 360.916C95.452 373.111 129.546 387.442 133.34 363.248" stroke="#1E2330" stroke-width="10"/>
<path d="M310.426 329.731C307.295 352.879 345.265 402.685 354.364 388.662C368.508 366.862 259.471 311.108 271.564 349.622C274.103 358.488 284.917 378.803 292.036 386.363C281.079 374.738 246.266 362.255 243.773 386.617" stroke="#1E2330" stroke-width="10"/>
<path d="M294.266 42.735C280.563 61.6512 218.715 71.5097 221.803 55.0814C226.604 29.5422 344.001 64.4072 308.676 83.9445C300.721 88.6109 278.877 95.857 268.508 96.4175C284.46 95.5622 318.273 110.543 303.27 129.899" stroke="#1E2330" stroke-width="10"/>
<path d="M318 244C333.201 235.009 343.534 221.348 352.842 206.423C358.187 197.848 362.803 188.773 366.841 179.517C366.963 179.245 371.677 167.892 366.78 178.564" stroke="#1E2330" stroke-width="10" stroke-linecap="round"/>
<path d="M339 192C357.962 189.09 376.977 190.28 396 190.064" stroke="#1E2330" stroke-width="10" stroke-linecap="round"/>
<path d="M59.9997 332.199C76.5697 338.309 93.688 337.696 111.138 335.49C121.163 334.221 131.114 332.071 140.841 329.357C141.13 329.28 152.91 325.767 141.542 328.708" stroke="#1E2330" stroke-width="10" stroke-linecap="round"/>
<path d="M113.583 315.65C127.812 328.516 138.896 344.013 151.075 358.628" stroke="#1E2330" stroke-width="10" stroke-linecap="round"/>
<path d="M139.376 172.571C123.68 180.667 106.616 182.158 89.0271 182.108C78.9223 182.078 68.7826 181.164 58.7961 179.663C58.5006 179.622 46.3787 177.58 58.0207 179.105" stroke="#1E2330" stroke-width="10" stroke-linecap="round"/>
<path d="M84.1686 162.717C71.6241 177.231 62.5247 193.97 52.2295 209.968" stroke="#1E2330" stroke-width="10" stroke-linecap="round"/>
<path d="M5 75C20.2005 66.0087 30.5344 52.3478 39.8418 37.4229C45.1874 28.8479 49.8031 19.7734 53.8409 10.5172C53.9625 10.2448 58.677 -1.10781 53.78 9.56363" stroke="#1E2330" stroke-width="10" stroke-linecap="round"/>
<path d="M26 23C44.9619 20.0897 63.9771 21.2803 83 21.0638" stroke="#1E2330" stroke-width="10" stroke-linecap="round"/>
<path d="M295.749 253C295.504 258.538 294.813 263.97 291.924 268.915C281.027 287.578 261.228 277.936 252.296 262.616" stroke="#1E2330" stroke-width="10" stroke-linecap="round"/>
<path d="M100 24.6513C101.808 19.4111 104.013 14.3994 108.189 10.4784C123.939 -4.31855 140.183 10.5509 144.394 27.7771" stroke="#1E2330" stroke-width="10" stroke-linecap="round"/>
<path d="M7.27299 100C10.642 100.69 13.9024 101.643 16.6507 103.895C27.0215 112.391 19.1839 123.581 8.92714 127.559" stroke="#1E2330" stroke-width="8" stroke-linecap="round"/>
<path d="M115.826 122.218C111.341 125.476 106.661 128.319 100.992 129.138C79.6041 132.235 74.8163 110.74 81.2396 94.211" stroke="#1E2330" stroke-width="10" stroke-linecap="round"/>
<path d="M157.449 246.779C151.924 246.329 146.521 245.438 141.686 242.368C123.44 230.787 133.808 211.358 149.449 203" stroke="#1E2330" stroke-width="10" stroke-linecap="round"/>
<path d="M77.6801 64.7285L90.4474 44.6687L109.336 55.0461" stroke="#1E2330" stroke-width="8"/>
<path d="M103.532 56.8213L115.85 36.322L134.66 47.3003" stroke="#1E2330" stroke-width="8"/>
<path d="M349.589 412.02L328.768 423.504L317.166 405.342" stroke="#1E2330" stroke-width="8"/>
<path d="M323.11 406.566L302.473 418.652L291.228 400" stroke="#1E2330" stroke-width="8"/>
<path d="M337.448 79.5453L346.15 57.4169L326.644 48.2546" stroke="#1E2330" stroke-width="8"/>
<path d="M328.624 53.9913L337.947 31.9676L318 23.2222" stroke="#1E2330" stroke-width="8"/>
<path d="M41.3872 424.779L35.7952 408.972L21.1719 413.108" stroke="#1E2330" stroke-width="8"/>
<path d="M24.8784 415.247L19.6649 399.21L5 403.771" stroke="#1E2330" stroke-width="8"/>
<path d="M261 244.586L245.552 226.51L261 211.483" stroke="#1E2330" stroke-width="8"/>
<path d="M261 217.552L245 199.777L261 185" stroke="#1E2330" stroke-width="8"/>
<path d="M261 244.586L245.552 226.51L261 211.483" stroke="#1E2330" stroke-width="8"/>
<path d="M261 217.552L245 199.777L261 185" stroke="#1E2330" stroke-width="8"/>
<path d="M383.297 343.626L359.968 350.428L350.797 343.489L377.531 335.502L377.152 307L386.322 313.939L386.616 339.24C386.68 339.707 386.629 340.88 385.905 341.837C385.181 342.794 383.865 343.429 383.297 343.626Z" fill="#1E2330"/>
<path d="M203.336 258.032L205.065 282.27L214.758 288.458L212.957 260.615L239.815 251.066L230.122 244.878L206.295 253.396C205.835 253.498 204.753 253.954 204.107 254.965C203.461 255.977 203.324 257.431 203.336 258.032Z" fill="#1E2330"/>
<path d="M420 158.5L405.5 178H394L410.5 155.5L393 133H404.5L420 153C420.333 153.333 421 154.3 421 155.5C421 156.7 420.333 158 420 158.5Z" fill="#1E2330"/>
<path d="M397 28C402.523 28 407 23.5228 407 18C407 12.4772 402.523 8 397 8C391.477 8 387 12.4772 387 18C387 23.5228 391.477 28 397 28Z" fill="#1E2330"/>
<path d="M205.415 113.496C193.271 115.299 183.039 107.952 181.645 98.2366C180.252 88.5212 187.999 78.5052 200.149 76.6982C212.3 74.8911 222.526 82.2421 223.919 91.9575C225.309 101.666 217.565 111.689 205.415 113.496Z" stroke="#1E2330" stroke-width="10"/>
<path d="M17.6819 317.46L40.8323 324.846L50.1747 318.141L23.6502 309.483L24.7469 281L15.4044 287.706L14.4747 312.992C14.3983 313.457 14.4204 314.631 15.1201 315.606C15.8199 316.581 17.1195 317.248 17.6819 317.46Z" fill="#1E2330"/>
</g>
<defs>
<clipPath id="clip0_173_2">
<rect width="421" height="429" fill="white"/>
</clipPath>
</defs>
</svg>
